plotw.jpg
Unjustly expelled from Harvard when a stash of cocaine is found in his possession, Matt moves to London to live with his sister and her husband Steve. He is quickly introduced to Steve's chirpy, cock-sure younger brother Pete. Initially, Pete is reluctant to get acquainted with Matt and allow him to tread around the capital city with him because he may be seen by others as an 'outsider', but after a heavy drinking session with him and his mates he quickly changes his opinion of him.
 
http://www.imdb.com/title/tt0385002/

# Elijah Wood as Matt Buckner
# Charlie Hunnam as Pete Dunham
# Leo Gregory as Bovver
# Claire Forlani as Shannon Buckner Dunham
# Marc Warren as Steve Dunham
# Ross McCall as Dave
# Rafe Spall as Swill
# Kieran Bew as Ike
 
http://img853.imageshack.us/img853/3474/63751989.png
 
http://img687.imageshack.us/img687/677/45010142.png
 
http://img12.imageshack.us/img12/7708/75088327.png
 
http://img841.imageshack.us/img841/3392/16466633.png
 
http://img706.imageshack.us/img706/1230/18929732.png
 
http://img29.imageshack.us/img29/5807/44794735.png
 
http://img717.imageshack.us/img717/5417/88721130.png
 
http://img857.imageshack.us/img857/530/42277390.png


General
Complete name : GREEN STREET HOOLIGANS.avi
Format : AVI
Format/Info : Audio Video Interleave
File size : 900 MiB
Duration : 1h 44mn
Overall bit rate : 1 208 Kbps
Writing application : VirtualDubMod 1.5.4.1 (build 2178/release)
Writing library : VirtualDubMod build 2178/release

Video
ID : 0
Format : MPEG-4 Visual
Format profile : Advanced Simple@L5
Format settings, BVOP : Yes
Format settings, QPel : No
Format settings, GMC : No warppoints
Format settings, Matrix : Default (H.263)
Muxing mode : Packed bitstream
Codec ID : XVID
Codec ID/Hint : XviD
Duration : 1h 44mn
Bit rate : 753 Kbps
Width : 608 pixels
Height : 256 pixels
Display aspect ratio : 2.35:1
Frame rate : 25.000 fps
Color space : YUV
Chroma subsampling : 4:2:0
Bit depth : 8 bits
Scan type : Progressive
Bits/(Pixel*Frame) : 0.193
Stream size : 561 MiB (62%)
Writing library : XviD 1.2.1 (UTC 2008-12-04)

Audio
ID : 1
Format : AC-3
Format/Info : Audio Coding 3
Mode extension : CM (complete main)
Codec ID : 2000
Duration : 1h 44mn
Bit rate mode : Constant
Bit rate : 448 Kbps
Channel(s) : 6 channels
Channel positions : Front: L C R, Side: L R, LFE
Sampling rate : 48.0 KHz
Bit depth : 16 bits
Stream size : 334 MiB (37%)
Alignment : Split accross interleaves
Interleave, duration : 80 ms (2.00 video frames)
Interleave, preload duration : 500 ms
Language : English
